<?xml version="1.0" encoding="utf-8"?>
<!-- Generator: Adobe Illustrator 15.0.0, SVG Export Plug-In . SVG Version: 6.00 Build 0)  -->
<!DOCTYPE svg PUBLIC "-//W3C//DTD SVG 1.1//EN" "http://www.w3.org/Graphics/SVG/1.1/DTD/svg11.dtd">
<svg version="1.1" id="Layer_1" xmlns="http://www.w3.org/2000/svg" xmlns:xlink="http://www.w3.org/1999/xlink" x="0px" y="0px"
	 width="146px" height="26px" viewBox="0 0 146 26" enable-background="new 0 0 146 26" xml:space="preserve">
<g>
	<path fill="#9C924A" d="M23.012,0.463v0.275c-0.709,0.01-1.341,0.178-1.894,0.498c-0.554,0.322-0.986,0.659-1.297,1.008
		c-0.311,0.35-0.644,0.771-0.999,1.265l-5.543,8.348v9.508c0,0.847,0.255,1.485,0.766,1.907c0.509,0.425,1.125,0.648,1.844,0.67
		V24.2H8.365v-0.259c0.763-0.021,1.366-0.239,1.812-0.653c0.446-0.413,0.669-1.055,0.669-1.925V12.26L4.803,3.201
		C4.159,2.226,3.582,1.575,3.071,1.252C2.561,0.93,1.87,0.759,1,0.738V0.463h8.428v0.275C8.568,0.77,8.018,0.955,7.776,1.293
		c-0.241,0.34-0.362,0.658-0.362,0.96c0,0.343,0.209,0.827,0.628,1.449l4.947,7.332l4.382-6.608c0.667-0.986,1-1.743,1-2.271
		c0-0.364-0.088-0.648-0.266-0.854c-0.178-0.204-0.357-0.338-0.54-0.402c-0.184-0.064-0.376-0.119-0.581-0.16V0.463H23.012z"/>
	<path fill="#9C924A" d="M32.904,0.174l7.106,20.336c0.376,1.051,0.73,1.815,1.063,2.288c0.333,0.472,0.652,0.771,0.958,0.894
		c0.307,0.123,0.696,0.206,1.168,0.25V24.2h-7.75v-0.259c0.796,0,1.407-0.075,1.836-0.228c0.43-0.149,0.646-0.558,0.646-1.224
		c0-0.363-0.103-0.854-0.306-1.464c-0.042-0.088-0.065-0.152-0.065-0.195l-2.111-6.3h-8.218l-1.885,5.833
		c-0.258,0.795-0.387,1.434-0.387,1.918c0,0.668,0.167,1.108,0.499,1.329c0.333,0.22,0.806,0.33,1.418,0.33V24.2h-5.575v-0.259
		c0.795-0.075,1.431-0.379,1.909-0.911c0.478-0.532,0.895-1.34,1.249-2.426l6.704-20.431H32.904L32.904,0.174z M27.507,13.677h7.557
		L31.197,2.413h-0.065L27.507,13.677z"/>
	<path fill="#9C924A" d="M56.995,5.023h-0.258c-0.15-1.149-0.652-2.157-1.506-3.021c-0.854-0.864-1.979-1.297-3.376-1.297
		c-0.913,0-1.724,0.216-2.433,0.646c-0.709,0.429-1.256,1.015-1.643,1.756s-0.58,1.591-0.58,2.547c0,0.741,0.115,1.399,0.347,1.974
		c0.23,0.574,0.571,1.082,1.023,1.522c0.451,0.44,0.983,0.852,1.596,1.233c0.612,0.381,1.439,0.861,2.48,1.441
		c1.741,0.956,3.094,1.91,4.061,2.86c0.967,0.949,1.451,2.254,1.451,3.908c0,1.009-0.261,1.985-0.782,2.924
		c-0.521,0.941-1.309,1.712-2.361,2.313c-1.053,0.601-2.358,0.901-3.916,0.901c-0.977,0-1.843-0.104-2.594-0.313
		c-0.751-0.21-1.514-0.503-2.289-0.879c-0.321-0.107-0.541-0.16-0.66-0.16c-0.225,0-0.373,0.078-0.443,0.24s-0.163,0.51-0.282,1.048
		h-0.274v-5.945h0.274c0.387,1.739,1.139,3.055,2.256,3.945c1.117,0.893,2.477,1.339,4.077,1.339c1.202,0,2.167-0.227,2.893-0.679
		c0.725-0.45,1.227-0.998,1.506-1.643c0.278-0.643,0.419-1.289,0.419-1.933c0-1.332-0.406-2.42-1.217-3.263
		c-0.811-0.844-2.044-1.706-3.698-2.586c-1.139-0.624-1.982-1.105-2.53-1.451c-0.547-0.344-1.103-0.79-1.667-1.338
		c-0.564-0.549-1.012-1.194-1.346-1.942c-0.333-0.748-0.499-1.602-0.499-2.57c0-1.116,0.296-2.186,0.887-3.205
		c0.59-1.021,1.428-1.842,2.514-2.459c1.083-0.616,2.314-0.926,3.688-0.926c1.043,0,2.111,0.178,3.208,0.531
		c0.172,0.087,0.403,0.129,0.692,0.129c0.354,0,0.597-0.24,0.726-0.724h0.258L56.995,5.023L56.995,5.023z"/>
	<path fill="#9C924A" d="M85.444,0.463v0.275c-0.451,0.053-0.773,0.098-0.968,0.135c-0.192,0.039-0.408,0.149-0.643,0.331
		c-0.365,0.279-0.593,0.543-0.686,0.79c-0.092,0.248-0.149,0.676-0.17,1.289c-0.032,0.096-0.032,0.193,0,0.291l0.824,17.628
		c0.02,0.739,0.198,1.379,0.53,1.917c0.333,0.537,1.06,0.812,2.176,0.822V24.2h-7.687v-0.259c1.01-0.107,1.693-0.4,2.047-0.879
		c0.354-0.478,0.504-1.223,0.449-2.231L80.498,2.59h-0.065L72.06,24.2L64.133,3.381h-0.065l-0.855,16.823
		c-0.042,0.924,0.014,1.641,0.171,2.151c0.155,0.51,0.405,0.875,0.75,1.095c0.343,0.221,0.853,0.384,1.53,0.492V24.2h-5.979v-0.258
		c0.763-0.012,1.343-0.194,1.74-0.549s0.658-0.798,0.782-1.329c0.123-0.531,0.218-1.259,0.282-2.184l0.951-17.402
		c0-0.065-0.064-0.18-0.193-0.347c-0.129-0.167-0.287-0.333-0.476-0.499c-0.188-0.167-0.368-0.299-0.54-0.396
		c-0.366-0.226-0.683-0.357-0.951-0.395c-0.269-0.039-0.644-0.072-1.129-0.104V0.463h5.511l7.347,19.417l7.456-19.417H85.444z"/>
	<path fill="#9C924A" d="M96.015,0.463v0.275c-0.709,0-1.31,0.198-1.803,0.595C93.716,1.73,93.47,2.391,93.47,3.315V21.33
		c0,0.914,0.261,1.576,0.789,1.989c0.527,0.415,1.111,0.621,1.756,0.621v0.259h-7.523V23.94c0.688,0,1.279-0.201,1.78-0.604
		c0.498-0.402,0.747-1.07,0.747-2.006V3.315c0-0.988-0.249-1.665-0.747-2.032c-0.501-0.364-1.093-0.547-1.78-0.547V0.462
		L96.015,0.463L96.015,0.463z"/>
	<path fill="#9C924A" d="M122.989,0.463v0.275c-0.601,0.074-1.077,0.19-1.425,0.346c-0.351,0.155-0.622,0.461-0.816,0.918
		c-0.19,0.455-0.287,1.115-0.287,1.974v20.819h-0.162L102.073,4.459v14.6c0,1.216,0.048,2.116,0.146,2.707
		c0.097,0.591,0.236,1.016,0.42,1.273c0.397,0.559,1.091,0.858,2.08,0.902V24.2h-5.948v-0.259c0.668-0.032,1.187-0.175,1.556-0.427
		c0.371-0.252,0.636-0.716,0.79-1.385c0.155-0.672,0.234-1.686,0.234-3.039V3.605l-0.791-0.887
		c-0.697-0.795-1.256-1.297-1.676-1.506c-0.418-0.21-0.94-0.368-1.563-0.477V0.462h4.466l17.948,20.109V5.249
		c0-1.148-0.045-2.008-0.136-2.579c-0.093-0.568-0.335-1.024-0.724-1.369c-0.396-0.344-1.01-0.531-1.847-0.562V0.463H122.989z"/>
	<path fill="#9C924A" d="M134.415,0.174l7.105,20.336c0.373,1.051,0.73,1.815,1.062,2.288c0.333,0.472,0.651,0.771,0.96,0.894
		c0.306,0.123,0.692,0.206,1.167,0.25V24.2h-7.75v-0.259c0.794,0,1.408-0.075,1.839-0.228c0.429-0.149,0.644-0.558,0.644-1.224
		c0-0.363-0.103-0.854-0.308-1.464c-0.042-0.088-0.064-0.152-0.064-0.195l-2.11-6.3h-8.217l-1.887,5.833
		c-0.258,0.795-0.387,1.434-0.387,1.918c0,0.668,0.164,1.108,0.5,1.329c0.331,0.22,0.806,0.33,1.416,0.33V24.2h-5.575v-0.259
		c0.795-0.075,1.432-0.379,1.91-0.911c0.479-0.532,0.895-1.34,1.25-2.426l6.702-20.431H134.415L134.415,0.174z M129.019,13.677
		h7.555l-3.866-11.264h-0.067L129.019,13.677z"/>
</g>
</svg>
